<svg width="34" height="34" viewBox="0 0 34 34" fill="none" xmlns="http://www.w3.org/2000/svg">
<path d="M2.83333 2.83334H4.68373C5.03226 2.83334 5.20652 2.83334 5.34676 2.89743C5.47034 2.95391 5.57507 3.04474 5.64846 3.15909C5.73174 3.28886 5.75639 3.46137 5.80567 3.80639L6.47619 8.5M6.47619 8.5L7.96637 19.4528C8.15547 20.8427 8.25003 21.5377 8.58231 22.0608C8.8751 22.5218 9.29487 22.8883 9.79108 23.1163C10.3542 23.375 11.0556 23.375 12.4583 23.375H24.582C25.9173 23.375 26.5849 23.375 27.1305 23.1348C27.6116 22.9229 28.0243 22.5814 28.3224 22.1485C28.6605 21.6575 28.7854 21.0016 29.0353 19.6899L30.9104 9.8454C30.9983 9.38373 31.0423 9.1529 30.9786 8.97246C30.9227 8.81418 30.8124 8.68089 30.6674 8.59636C30.502 8.5 30.267 8.5 29.7971 8.5H6.47619ZM14.1667 29.75C14.1667 30.5324 13.5324 31.1667 12.75 31.1667C11.9676 31.1667 11.3333 30.5324 11.3333 29.75C11.3333 28.9676 11.9676 28.3333 12.75 28.3333C13.5324 28.3333 14.1667 28.9676 14.1667 29.75ZM25.5 29.75C25.5 30.5324 24.8657 31.1667 24.0833 31.1667C23.3009 31.1667 22.6667 30.5324 22.6667 29.75C22.6667 28.9676 23.3009 28.3333 24.0833 28.3333C24.8657 28.3333 25.5 28.9676 25.5 29.75Z" stroke="black" stroke-width="2" stroke-linecap="round" stroke-linejoin="round"/>
</svg>
